# xmcd CD database file
#
# Track frame offsets:
#	150
#	15377
#	31793
#	46638
#	47088
#	65878
#	75915
#	96915
#	111340
#	124460
#	137290
#	148906
#	189148
#
# Disc length: 2825 seconds
#
# Revision: 1
# Processed by: cddbd v1.5.2PL0 Copyright (c) Steve Scherf et al.
# Submitted via: CDex 1.70beta2
#
DISCID=a60b070d
DTITLE=Bertrand Laurence - La Vie en Bleu
DYEAR=1998
DGENRE=Blues
TTITLE0=Coup de Blues
TTITLE1=The Eugene Strut
TTITLE2=Tous les Jours, j'ai des Bleus
TTITLE3=Great Big Brains
TTITLE4=Faith, Reason and Death...
TTITLE5=Savage Rag
TTITLE6=St. Louis Blues
TTITLE7=Cœur de Glaise et Geule de Bois
TTITLE8=Tune to Big Bill
TTITLE9=Out with the Wrong Woman
TTITLE10=Y'a d'la Joie Ici...
TTITLE11=Graine d'Ananar
TTITLE12=Down in the Alley
EXTD=YEAR: 1998
EXTT0=
EXTT1=
EXTT2=
EXTT3=
EXTT4=
EXTT5=
EXTT6=
EXTT7=
EXTT8=
EXTT9=
EXTT10=
EXTT11=
EXTT12=
PLAYORDER=
